<?xml version="1.0" encoding="UTF-8"?>
<svg version="1.1" xmlns="http://www.w3.org/2000/svg" width="1024" height="1024">
<!-- Removed white background so icon is transparent when used as a floating image-only button -->
<path d="M0 0 C1.12083481 -0.00151062 1.12083481 -0.00151062 2.26431274 -0.00305176 C21.28220315 0.01418492 39.75794448 1.62299624 58 7.25 C59.31378063 7.60519259 60.62895491 7.95526131 61.9453125 8.30078125 C93.79382982 16.83257414 123.57343288 33.87604578 147.7421875 56.1796875 C149.76475254 58.03428866 151.83483984 59.80035161 153.9375 61.5625 C163.51800023 69.94784728 171.55542475 79.96883091 179 90.25 C179.40041504 90.79930176 179.80083008 91.34860352 180.21337891 91.91455078 C197.2957878 115.62903466 209.49209482 143.53425766 215 172.25 C215.12354858 172.88218445 215.24709717 173.5143689 215.37438965 174.16571045 C217.89739576 187.38588305 218.55955995 200.3104645 218.5 213.75 C218.49885193 215.25471359 218.49885193 215.25471359 218.49768066 216.78982544 C218.45285346 233.12755494 217.05391096 248.36885752 213 264.25 C212.68210132 265.65402665 212.36786881 267.05889235 212.05859375 268.46484375 C208.08550644 285.15893707 201.12677506 301.18671481 193 316.25 C192.68595215 316.84329102 192.3719043 317.43658203 192.04833984 318.04785156 C187.20623283 327.15031062 181.55922721 335.40858972 175.2890625 343.5703125 C174.17955146 345.016039 173.08799212 346.47551059 172 347.9375 C159.67512514 363.84056433 144.47500323 377.77679081 128 389.25 C127.1642041 389.84482178 127.1642041 389.84482178 126.31152344 390.45166016 C109.28840219 402.47378514 89.85932028 412.01062307 70 418.25 C69.27329102 418.48122559 68.54658203 418.71245117 67.79785156 418.95068359 C58.85942117 421.74270109 49.82959952 423.79289111 40.625 425.5 C39.74610107 425.66330811 38.86720215 425.82661621 37.96166992 425.99487305 C25.78844138 428.1321053 13.63952578 428.45577479 1.3125 428.4375 C0.55821716 428.43689575 -0.19606567 428.4362915 -0.97320557 428.43566895 C-11.78885349 428.41214107 -22.32549556 428.14404028 -33 426.25 C-33.71526855 426.1370459 -34.43053711 426.0240918 -35.16748047 425.90771484 C-43.76275081 424.54306725 -51.84126079 422.78755596 -59.96875 419.6015625 C-71.40162897 414.49361503 -71.40162897 414.49361503 -83.48486328 413.79199219 C-87.85940589 415.921979 -91.08504353 419.18481511 -94.40380859 422.68164062 C-103.05415232 431.18115241 -116.71312786 435.20810107 -127.81860352 439.41552734 C-129.36308462 440.00635403 -130.89557149 440.62898604 -132.41845703 441.2734375 C-137.22047966 443.08997718 -142.28889407 443.87550871 -147.3125 444.875 C-148.41529297 445.10445312 -149.51808594 445.33390625 -150.65429688 445.5703125 C-165.85454793 448.61943749 -165.85454793 448.61943749 -170.9375 445.375 C-173.97271797 442.24780573 -174.41695364 440.01661408 -174.35693359 435.64892578 C-173.62927 430.75834951 -171.06846363 426.52979781 -168.8125 422.1875 C-161.92039453 408.33195357 -156.94832904 394.65213146 -155 379.25 C-154.86078125 378.21794434 -154.86078125 378.21794434 -154.71875 377.16503906 C-154.00512519 371.18564365 -153.48775777 365.65332689 -156.81640625 360.36328125 C-158.96205235 358.05920863 -161.19161254 355.9044001 -163.49414062 353.75927734 C-166.30501672 350.94202117 -168.63380848 347.75397389 -171 344.5625 C-171.7571228 343.54240845 -171.7571228 343.54240845 -172.52954102 342.50170898 C-177.77157781 335.3348158 -182.52232886 327.91453262 -187 320.25 C-187.37721191 319.61078613 -187.75442383 318.97157227 -188.14306641 318.31298828 C-200.24979846 297.52635384 -207.58876066 274.80684967 -212 251.25 C-212.17644043 250.32832031 -212.35288086 249.40664063 -212.53466797 248.45703125 C-222.41899548 194.77406318 -207.96713058 138.08720818 -177.45556641 93.33691406 C-154.80950936 60.86819624 -123.837002 35.79925706 -88 19.25 C-87.29359375 18.9190332 -86.5871875 18.58806641 -85.859375 18.24707031 C-66.55123651 9.30336255 -46.10069417 3.81251314 -25 1.25 C-24.35160156 1.1571875 -23.70320312 1.064375 -23.03515625 0.96875 C-15.39221571 -0.04260319 -7.69618781 0.00720171 0 0 Z " fill="#FBFCFC" transform="translate(510,288.75)"/>
<path d="M0 0 C1.05232819 0.00304138 2.10465637 0.00608276 3.18887329 0.00921631 C18.53331163 0.07476655 33.25716833 0.58929645 48.1875 4.4375 C49.08807129 4.65712402 49.98864258 4.87674805 50.91650391 5.10302734 C72.2077122 10.36715286 91.6400576 18.73420028 108.1875 33.4375 C108.9815625 34.13617188 109.775625 34.83484375 110.59375 35.5546875 C121.050832 45.33134293 129.68906441 60.44375762 133.1875 74.4375 C135.8275 75.0975 138.4675 75.7575 141.1875 76.4375 C141.1680911 70.95581672 141.11641026 65.4757414 141.03491211 59.99462891 C141.01172755 58.13046024 140.9973353 56.2661605 140.99194336 54.40185547 C140.98265685 51.72019735 140.94167581 49.04060194 140.89453125 46.359375 C140.90043022 45.11072662 140.90043022 45.11072662 140.90644836 43.83685303 C140.82603205 38.85615644 140.82603205 38.85615644 137.70581055 35.06738281 C136.45924683 34.26059082 136.45924683 34.26059082 135.1875 33.4375 C133.50782182 28.39846545 133.31685172 23.38609377 135.5 18.5 C137.63323378 15.89271427 139.30680684 14.56884356 142.67578125 14.06640625 C151.23905127 13.86505689 151.23905127 13.86505689 154.8125 16.8125 C158.09616168 20.44181028 158.47265427 22.42537866 158.41015625 27.3359375 C158.07343684 30.51409614 156.89978981 32.77393807 155.1875 35.4375 C154.1975 36.0975 153.2075 36.7575 152.1875 37.4375 C151.71323374 39.40740241 151.71323374 39.40740241 151.75512695 41.70361328 C151.72543571 43.02475632 151.72543571 43.02475632 151.69514465 44.37258911 C151.68875473 45.32471283 151.68236481 46.27683655 151.67578125 47.2578125 C151.65783005 48.23160858 151.63987885 49.20540466 151.62138367 50.20870972 C151.56709368 53.32659542 151.53332509 56.44432645 151.5 59.5625 C151.46684343 61.6731987 151.43235534 63.78387694 151.39648438 65.89453125 C151.31135693 71.07538212 151.24308664 76.25625257 151.1875 81.4375 C151.81003662 81.73462891 152.43257324 82.03175781 153.07397461 82.33789062 C155.4750122 83.58708472 156.92424731 84.94428454 158.75 86.9375 C159.61818359 87.85015625 159.61818359 87.85015625 160.50390625 88.78125 C165.78002586 97.10552225 165.71757631 106.51228761 165.68847656 116.05908203 C165.68750437 118.3024151 165.72923874 120.54231448 165.7734375 122.78515625 C165.86300793 133.55471862 164.38439204 143.11114835 156.875 151.4375 C150.42912322 157.14710206 143.575645 159.13114955 135.1875 160.4375 C135.08566406 161.28699219 134.98382812 162.13648438 134.87890625 163.01171875 C132.09623387 176.79931014 122.73953267 187.56941555 111.36401367 195.20214844 C97.8896424 203.89430822 83.43840684 208.78773489 68.1875 213.4375 C67.09332764 213.77225342 67.09332764 213.77225342 65.97705078 214.11376953 C12.63786095 229.98006613 -55.28444928 225.95478728 -104.55883789 199.31420898 C-119.06426833 190.9543012 -129.58184159 178.69106706 -134.6953125 162.671875 C-135.58027295 160.29364841 -135.58027295 160.29364841 -137.6953125 159.65234375 C-138.80519531 159.51505859 -138.80519531 159.51505859 -139.9375 159.375 C-148.20952753 157.91679002 -154.69817325 154.20789446 -159.8125 147.4375 C-163.54740867 141.49630149 -164.41844282 136.50979122 -164.37890625 129.56640625 C-164.38510483 128.64464096 -164.39130341 127.72287567 -164.39768982 126.7731781 C-164.40475621 124.83439178 -164.40166994 122.89554436 -164.38891602 120.95678711 C-164.37505204 118.01105697 -164.40916609 115.06850946 -164.44726562 112.12304688 C-164.44821705 110.2291659 -164.44635676 108.335281 -164.44140625 106.44140625 C-164.45466446 105.57238174 -164.46792267 104.70335724 -164.48158264 103.80799866 C-164.38409048 97.31746491 -162.70838972 92.65272011 -158.8125 87.4375 C-157.58190079 86.26524569 -156.32878326 85.11615098 -155.05371094 83.99243164 C-152.25017 81.34229398 -151.30900177 79.64356544 -150.93847656 75.79077148 C-150.90611055 74.04700575 -150.91287561 72.30219533 -150.953125 70.55859375 C-150.9501944 69.16315086 -150.9501944 69.16315086 -150.94720459 67.73951721 C-150.95118784 65.78204832 -150.972349 63.82454694 -151.00976562 61.86743164 C-151.06242247 58.87939968 -151.05090851 55.89654185 -151.03125 52.90820312 C-151.04306338 50.9999726 -151.05856371 49.09176058 -151.078125 47.18359375 C-151.07427795 46.29594833 -151.07043091 45.40830292 -151.06646729 44.49375916 C-151.22895054 38.36598235 -152.51096738 35.7909744 -156.8125 31.4375 C-157.91033318 28.40201656 -158.10603893 25.64916122 -157.8125 22.4375 C-155.70501335 18.06041235 -153.39942088 15.17033678 -148.8125 13.4375 C-144.22419808 13.2369185 -140.80054975 13.82785228 -136.875 16.25 C-133.78420916 19.52811149 -132.93912524 21.29787287 -132.4375 25.8125 C-132.88124658 30.10205031 -134.07188125 32.1487575 -136.8125 35.4375 C-138.2975 35.9325 -138.2975 35.9325 -139.8125 36.4375 C-139.8125 49.3075 -139.8125 62.1775 -139.8125 75.4375 C-136.3475 74.9425 -136.3475 74.9425 -132.8125 74.4375 C-131.27920831 71.75266208 -130.36706897 69.63925975 -129.4375 66.75 C-120.42919011 42.18023577 -101.99219285 25.59057453 -78.74072266 14.44433594 C-53.7569031 2.92424889 -27.25618018 -0.16775358 0 0 Z " fill="#31C4E5" transform="translate(511.8125,397.5625)"/>
<path d="M0 0 C1.12083481 -0.00151062 1.12083481 -0.00151062 2.26431274 -0.00305176 C21.28220315 0.01418492 39.75794448 1.62299624 58 7.25 C59.31378063 7.60519259 60.62895491 7.95526131 61.9453125 8.30078125 C93.79382982 16.83257414 123.57343288 33.87604578 147.7421875 56.1796875 C149.76475254 58.03428866 151.83483984 59.80035161 153.9375 61.5625 C163.51800023 69.94784728 171.55542475 79.96883091 179 90.25 C179.40041504 90.79930176 179.80083008 91.34860352 180.21337891 91.91455078 C197.2957878 115.62903466 209.49209482 143.53425766 215 172.25 C215.12354858 172.88218445 215.24709717 173.5143689 215.37438965 174.16571045 C217.89739576 187.38588305 218.55955995 200.3104645 218.5 213.75 C218.49885193 215.25471359 218.49885193 215.25471359 218.49768066 216.78982544 C218.45285346 233.12755494 217.05391096 248.36885752 213 264.25 C212.68210132 265.65402665 212.36786881 267.05889235 212.05859375 268.46484375 C208.08550644 285.15893707 201.12677506 301.18671481 193 316.25 C192.68595215 316.84329102 192.3719043 317.43658203 192.04833984 318.04785156 C187.20623283 327.15031062 181.55922721 335.40858972 175.2890625 343.5703125 C174.17955146 345.016039 173.08799212 346.47551059 172 347.9375 C159.67512514 363.84056433 144.47500323 377.77679081 128 389.25 C127.1642041 389.84482178 127.1642041 389.84482178 126.31152344 390.45166016 C109.28840219 402.47378514 89.85932028 412.01062307 70 418.25 C69.27329102 418.48122559 68.54658203 418.71245117 67.79785156 418.95068359 C58.85942117 421.74270109 49.82959952 423.79289111 40.625 425.5 C39.74610107 425.66330811 38.86720215 425.82661621 37.96166992 425.99487305 C25.78844138 428.1321053 13.63952578 428.45577479 1.3125 428.4375 C0.55821716 428.43689575 -0.19606567 428.4362915 -0.97320557 428.43566895 C-11.78885349 428.41214107 -22.32549556 428.14404028 -33 426.25 C-33.71526855 426.1370459 -34.43053711 426.0240918 -35.16748047 425.90771484 C-43.76275081 424.54306725 -51.84126079 422.78755596 -59.96875 419.6015625 C-71.40162897 414.49361503 -71.40162897 414.49361503 -83.48486328 413.79199219 C-87.85940589 415.921979 -91.08504353 419.18481511 -94.40380859 422.68164062 C-103.05415232 431.18115241 -116.71312786 435.20810107 -127.81860352 439.41552734 C-129.36308462 440.00635403 -130.89557149 440.62898604 -132.41845703 441.2734375 C-137.22047966 443.08997718 -142.28889407 443.87550871 -147.3125 444.875 C-148.41529297 445.10445312 -149.51808594 445.33390625 -150.65429688 445.5703125 C-165.85454793 448.61943749 -165.85454793 448.61943749 -170.9375 445.375 C-173.97271797 442.24780573 -174.41695364 440.01661408 -174.35693359 435.64892578 C-173.62927 430.75834951 -171.06846363 426.52979781 -168.8125 422.1875 C-161.92039453 408.33195357 -156.94832904 394.65213146 -155 379.25 C-154.86078125 378.21794434 -154.86078125 378.21794434 -154.71875 377.16503906 C-154.00512519 371.18564365 -153.48775777 365.65332689 -156.81640625 360.36328125 C-158.96205235 358.05920863 -161.19161254 355.9044001 -163.49414062 353.75927734 C-166.30501672 350.94202117 -168.63380848 347.75397389 -171 344.5625 C-171.7571228 343.54240845 -171.7571228 343.54240845 -172.52954102 342.50170898 C-177.77157781 335.3348158 -182.52232886 327.91453262 -187 320.25 C-187.37721191 319.61078613 -187.75442383 318.97157227 -188.14306641 318.31298828 C-200.24979846 297.52635384 -207.58876066 274.80684967 -212 251.25 C-212.17644043 250.32832031 -212.35288086 249.40664063 -212.53466797 248.45703125 C-222.41899548 194.77406318 -207.96713058 138.08720818 -177.45556641 93.33691406 C-154.80950936 60.86819624 -123.837002 35.79925706 -88 19.25 C-87.29359375 18.9190332 -86.5871875 18.58806641 -85.859375 18.24707031 C-66.55123651 9.30336255 -46.10069417 3.81251314 -25 1.25 C-24.35160156 1.1571875 -23.70320312 1.064375 -23.03515625 0.96875 C-15.39221571 -0.04260319 -7.69618781 0.00720171 0 0 Z M-26 21.25 C-27.36193612 21.45861455 -28.72391652 21.66694022 -30.0859375 21.875 C-46.32480545 24.45481319 -61.95055292 28.57381323 -77 35.25 C-77.67240723 35.54245605 -78.34481445 35.83491211 -79.03759766 36.13623047 C-98.31070155 44.57351743 -115.27981172 55.91216927 -130.73828125 70.17578125 C-132.78324667 72.05121586 -134.87619475 73.84032533 -137 75.625 C-163.75557283 99.11639294 -182.72111934 134.92640034 -191 169.25 C-191.18191895 169.9212793 -191.36383789 170.59255859 -191.55126953 171.28417969 C-201.5364953 208.91235928 -196.27494471 253.86831198 -181 289.25 C-180.65598145 290.06178711 -180.31196289 290.87357422 -179.95751953 291.70996094 C-172.70661108 308.59156318 -163.23789844 324.5017983 -151 338.25 C-150.23816406 339.12011719 -149.47632813 339.99023438 -148.69140625 340.88671875 C-144.65148971 345.54190053 -144.65148971 345.54190053 -140.19091797 349.77612305 C-136.71627022 352.82382004 -134.58457647 354.94403354 -134.2109375 359.67578125 C-134.2246204 361.30554782 -134.28133166 362.93536985 -134.375 364.5625 C-134.40319824 365.43914307 -134.43139648 366.31578613 -134.46044922 367.21899414 C-135.2023787 384.30953986 -138.69453429 402.50316619 -145.6875 418.17578125 C-147.19632479 421.15273155 -147.19632479 421.15273155 -147 424.25 C-125.44419535 421.78647947 -104.54305172 409.46946257 -89.1875 394.5625 C-86 392.25 -86 392.25 -82.32421875 392.40234375 C-77.80693107 393.12657579 -73.81815727 394.72332571 -69.625 396.5 C-46.7274581 405.76085764 -23.2648746 409.47200634 1.375 409.5 C2.0763205 409.50133942 2.77764099 409.50267883 3.50021362 409.50405884 C14.79427012 409.49940547 25.74533659 408.74568781 36.85839844 406.64697266 C38.79650305 406.28772071 40.74572967 405.98980139 42.6953125 405.69921875 C60.48021531 402.77485554 78.39775139 395.99191515 94.14355469 387.27685547 C96.11824937 386.18459274 98.10885622 385.12541135 100.1015625 384.06640625 C108.64279378 379.46458365 116.40725802 374.32205177 124 368.25 C124.84175781 367.61191406 125.68351562 366.97382812 126.55078125 366.31640625 C145.828828 351.30936834 161.97221648 332.4785239 174 311.25 C174.32806641 310.67604492 174.65613281 310.10208984 174.99414062 309.51074219 C199.93945637 265.55833596 206.17080237 212.98399606 193.3125 164.125 C180.85300693 119.81979443 153.30739616 80.11284804 115 54.25 C114.38157227 53.82460938 113.76314453 53.39921875 113.12597656 52.9609375 C95.37193707 40.85886353 75.60964772 32.16553729 55 26.25 C54.28215332 26.04294434 53.56430664 25.83588867 52.82470703 25.62255859 C27.42451714 18.51338024 -0.00003662 16.94358785 -26 21.25 Z " fill="#20316A" transform="translate(510,288.75)"/>
<path d="M0 0 C1.05232819 0.00304138 2.10465637 0.00608276 3.18887329 0.00921631 C18.53331163 0.07476655 33.25716833 0.58929645 48.1875 4.4375 C49.08807129 4.65712402 49.98864258 4.87674805 50.91650391 5.10302734 C72.2077122 10.36715286 91.6400576 18.73420028 108.1875 33.4375 C108.9815625 34.13617188 109.775625 34.83484375 110.59375 35.5546875 C121.050832 45.33134293 129.68906441 60.44375762 133.1875 74.4375 C135.8275 75.0975 138.4675 75.7575 141.1875 76.4375 C141.1680911 70.95581672 141.11641026 65.4757414 141.03491211 59.99462891 C141.01172755 58.13046024 140.9973353 56.2661605 140.99194336 54.40185547 C140.98265685 51.72019735 140.94167581 49.04060194 140.89453125 46.359375 C140.90043022 45.11072662 140.90043022 45.11072662 140.90644836 43.83685303 C140.82603205 38.85615644 140.82603205 38.85615644 137.70581055 35.06738281 C136.45924683 34.26059082 136.45924683 34.26059082 135.1875 33.4375 C133.50782182 28.39846545 133.31685172 23.38609377 135.5 18.5 C137.63323378 15.89271427 139.30680684 14.56884356 142.67578125 14.06640625 C151.23905127 13.86505689 151.23905127 13.86505689 154.8125 16.8125 C158.09616168 20.44181028 158.47265427 22.42537866 158.41015625 27.3359375 C158.07343684 30.51409614 156.89978981 32.77393807 155.1875 35.4375 C154.1975 36.0975 153.2075 36.7575 152.1875 37.4375 C151.71323374 39.40740241 151.71323374 39.40740241 151.75512695 41.70361328 C151.72543571 43.02475632 151.72543571 43.02475632 151.69514465 44.37258911 C151.68875473 45.32471283 151.68236481 46.27683655 151.67578125 47.2578125 C151.65783005 48.23160858 151.63987885 49.20540466 151.62138367 50.20870972 C151.56709368 53.32659542 151.53332509 56.44432645 151.5 59.5625 C151.46684343 61.6731987 151.43235534 63.78387694 151.39648438 65.89453125 C151.31135693 71.07538212 151.24308664 76.25625257 151.1875 81.4375 C151.81003662 81.73462891 152.43257324 82.03175781 153.07397461 82.33789062 C155.4750122 83.58708472 156.92424731 84.94428454 158.75 86.9375 C159.61818359 87.85015625 159.61818359 87.85015625 160.50390625 88.78125 C165.78002586 97.10552225 165.71757631 106.51228761 165.68847656 116.05908203 C165.68750437 118.3024151 165.72923874 120.54231448 165.7734375 122.78515625 C165.86300793 133.55471862 164.38439204 143.11114835 156.875 151.4375 C150.42912322 157.14710206 143.575645 159.13114955 135.1875 160.4375 C135.08566406 161.28699219 134.98382812 162.13648438 134.87890625 163.01171875 C132.09623387 176.79931014 122.73953267 187.56941555 111.36401367 195.20214844 C97.8896424 203.89430822 83.43840684 208.78773489 68.1875 213.4375 C67.09332764 213.77225342 67.09332764 213.77225342 65.97705078 214.11376953 C12.63786095 229.98006613 -55.28444928 225.95478728 -104.55883789 199.31420898 C-119.06426833 190.9543012 -129.58184159 178.69106706 -134.6953125 162.671875 C-135.58027295 160.29364841 -135.58027295 160.29364841 -137.6953125 159.65234375 C-138.80519531 159.51505859 -138.80519531 159.51505859 -139.9375 159.375 C-148.20952753 157.91679002 -154.69817325 154.20789446 -159.8125 147.4375 C-163.54740867 141.49630149 -164.41844282 136.50979122 -164.37890625 129.56640625 C-164.38510483 128.64464096 -164.39130341 127.72287567 -164.39768982 126.7731781 C-164.40475621 124.83439178 -164.40166994 122.89554436 -164.38891602 120.95678711 C-164.37505204 118.01105697 -164.40916609 115.06850946 -164.44726562 112.12304688 C-164.44821705 110.2291659 -164.44635676 108.335281 -164.44140625 106.44140625 C-164.45466446 105.57238174 -164.46792267 104.70335724 -164.48158264 103.80799866 C-164.38409048 97.31746491 -162.70838972 92.65272011 -158.8125 87.4375 C-157.58190079 86.26524569 -156.32878326 85.11615098 -155.05371094 83.99243164 C-152.25017 81.34229398 -151.30900177 79.64356544 -150.93847656 75.79077148 C-150.90611055 74.04700575 -150.91287561 72.30219533 -150.953125 70.55859375 C-150.9501944 69.16315086 -150.9501944 69.16315086 -150.94720459 67.73951721 C-150.95118784 65.78204832 -150.972349 63.82454694 -151.00976562 61.86743164 C-151.06242247 58.87939968 -151.05090851 55.89654185 -151.03125 52.90820312 C-151.04306338 50.9999726 -151.05856371 49.09176058 -151.078125 47.18359375 C-151.07427795 46.29594833 -151.07043091 45.40830292 -151.06646729 44.49375916 C-151.22895054 38.36598235 -152.51096738 35.7909744 -156.8125 31.4375 C-157.91033318 28.40201656 -158.10603893 25.64916122 -157.8125 22.4375 C-155.70501335 18.06041235 -153.39942088 15.17033678 -148.8125 13.4375 C-144.22419808 13.2369185 -140.80054975 13.82785228 -136.875 16.25 C-133.78420916 19.52811149 -132.93912524 21.29787287 -132.4375 25.8125 C-132.88124658 30.10205031 -134.07188125 32.1487575 -136.8125 35.4375 C-138.2975 35.9325 -138.2975 35.9325 -139.8125 36.4375 C-139.8125 49.3075 -139.8125 62.1775 -139.8125 75.4375 C-136.3475 74.9425 -136.3475 74.9425 -132.8125 74.4375 C-131.27920831 71.75266208 -130.36706897 69.63925975 -129.4375 66.75 C-120.42919011 42.18023577 -101.99219285 25.59057453 -78.74072266 14.44433594 C-53.7569031 2.92424889 -27.25618018 -0.16775358 0 0 Z M-73.3125 32.9375 C-74.02720459 33.2977124 -74.74190918 33.6579248 -75.47827148 34.02905273 C-95.48160699 44.3642966 -107.50753891 59.87224099 -115.03515625 80.84375 C-123.15312025 107.26571648 -124.51846564 138.55058838 -113.8125 164.4375 C-111.82399288 167.86161226 -109.58889001 170.62596582 -106.8125 173.4375 C-106.26335937 174.035625 -105.71421875 174.63375 -105.1484375 175.25 C-87.69469924 192.47307212 -56.92330981 197.65845013 -33.8125 201.4375 C-32.6354248 201.63448486 -32.6354248 201.63448486 -31.43457031 201.83544922 C-8.79160096 205.45690215 14.65983963 204.11941484 37.1875 200.4375 C38.09967285 200.29296387 39.0118457 200.14842773 39.95166016 199.99951172 C52.7513463 197.92779338 64.97201515 194.77914823 77.1875 190.4375 C78.22825684 190.06987549 78.22825684 190.06987549 79.29003906 189.69482422 C93.19839215 184.69410564 107.07139613 177.94768607 114.0625 164.25 C114.79800957 162.65811041 115.50724189 161.05377217 116.1875 159.4375 C116.5278125 158.6846875 116.868125 157.931875 117.21875 157.15625 C126.95805817 129.82335288 122.23560549 94.2462837 110.5402832 68.2434082 C102.36425519 51.05231409 87.70038459 38.59620283 70.1875 31.4375 C66.91915658 30.72953627 66.91915658 30.72953627 64.1875 30.4375 C63.95675781 31.04335938 63.72601562 31.64921875 63.48828125 32.2734375 C56.84793435 49.33361728 49.58197207 59.99521879 32.39453125 67.6875 C12.19630352 75.61523152 -13.68844697 75.36196148 -33.609375 66.859375 C-45.23838192 61.57966042 -53.92245498 54.48527245 -59.03515625 42.59375 C-60.66735874 38.24121004 -61.98089136 34.01546437 -62.8125 29.4375 C-66.85643881 29.4375 -69.78001158 31.15507427 -73.3125 32.9375 Z " fill="#1270B3" transform="translate(511.8125,397.5625)"/>
<path d="M0 0 C4.4005959 3.30234047 6.84791022 7.85988293 9.26953125 12.703125 C9.97987392 21.70535229 9.25258547 27.47713153 4.01953125 34.890625 C-1.60898553 40.64706261 -5.16178027 41.97145521 -13.16796875 42.265625 C-20.75916937 42.04830534 -24.96709439 40.49559762 -30.24609375 35.17578125 C-35.67226417 29.04795086 -36.24803888 24.29937675 -36.09765625 16.25390625 C-35.4520055 10.0103261 -33.34090855 5.89552284 -28.53515625 1.859375 C-19.43542521 -4.50743352 -9.92299531 -5.43811397 0 0 Z " fill="#1C326B" transform="translate(589.73046875,499.296875)"/>
<path d="M0 0 C2.6875 2.1875 2.6875 2.1875 5 5 C5.46664062 5.55429687 5.93328125 6.10859375 6.4140625 6.6796875 C10.70198429 12.45281125 10.97770105 17.99929156 10 25 C8.29172639 31.58187774 4.8578247 36.46909776 -1 40 C-7.29328659 42.50863424 -13.3076934 42.92059241 -20 42 C-26.23195483 39.30729119 -31.17328967 34.89255365 -34.07421875 28.7109375 C-36.12168073 22.71541592 -36.07604874 15.52350423 -33.5 9.6875 C-30.43096924 4.45594934 -25.7611925 0.67124809 -20.625 -2.4375 C-13.4740744 -3.9698412 -6.45895849 -3.59152849 0 0 Z " fill="#1D316B" transform="translate(460,499)"/>
<path d="M0 0 C5.28 0 10.56 0 16 0 C16 4.62 16 9.24 16 14 C20.62 14 25.24 14 30 14 C30 19.28 30 24.56 30 30 C25.38 30 20.76 30 16 30 C16 34.95 16 39.9 16 45 C10.72 45 5.44 45 0 45 C0 40.05 0 35.1 0 30 C-4.62 30 -9.24 30 -14 30 C-14 24.72 -14 19.44 -14 14 C-9.38 14 -4.76 14 0 14 C0 9.38 0 4.76 0 0 Z " fill="#31C1E6" transform="translate(504,413)"/>
<path d="M0 0 C4.29 0 8.58 0 13 0 C13 3.96 13 7.92 13 12 C17.29 12 21.58 12 26 12 C26 16.29 26 20.58 26 25 C21.71 25 17.42 25 13 25 C13 28.96 13 32.92 13 37 C8.71 37 4.42 37 0 37 C0 33.04 0 29.08 0 25 C-4.29 25 -8.58 25 -13 25 C-13 20.71 -13 16.42 -13 12 C-8.71 12 -4.42 12 0 12 C0 8.04 0 4.08 0 0 Z " fill="#15A9E0" transform="translate(506,640)"/>
<path d="M0 0 C3.43761572 2.12108204 5.77560839 4.1042085 7 8 C7.480151 12.32135899 7.29173086 14.4668367 5.1875 18.3125 C3 21 3 21 0 23 C-0.510605 25.71004503 -0.510605 25.71004503 -0.51171875 28.8828125 C-0.54716797 30.04941406 -0.58261719 31.21601563 -0.61914062 32.41796875 C-0.64169922 33.64128906 -0.66425781 34.86460937 -0.6875 36.125 C-0.72166016 37.35605469 -0.75582031 38.58710938 -0.79101562 39.85546875 C-0.87371564 42.9035551 -0.94279427 45.95134571 -1 49 C-1.99 49.495 -1.99 49.495 -3 50 C-2.99476318 49.38479492 -2.98952637 48.76958984 -2.98413086 48.13574219 C-2.96330629 45.34050524 -2.95032241 42.54528464 -2.9375 39.75 C-2.92912109 38.78191406 -2.92074219 37.81382812 -2.91210938 36.81640625 C-2.90888672 35.88183594 -2.90566406 34.94726562 -2.90234375 33.984375 C-2.89710693 33.12553711 -2.89187012 32.26669922 -2.88647461 31.38183594 C-2.99460014 29.11329256 -3.36417577 27.17368285 -4 25 C-4.66 25.33 -5.32 25.66 -6 26 C-6 25.34 -6 24.68 -6 24 C-6.66 24.33 -7.32 24.66 -8 25 C-8.01981934 26.1960083 -8.03963867 27.3920166 -8.06005859 28.62426758 C-8.13608272 33.05807694 -8.22480497 37.49155674 -8.31738281 41.92504883 C-8.35568577 43.84457904 -8.39053633 45.76418135 -8.421875 47.68383789 C-8.46749702 50.4418313 -8.5254958 53.19932777 -8.5859375 55.95703125 C-8.60326431 57.24623222 -8.60326431 57.24623222 -8.62094116 58.56147766 C-8.64081085 59.36208115 -8.66068054 60.16268463 -8.68115234 60.98754883 C-8.69447601 61.6914827 -8.70779968 62.39541656 -8.7215271 63.12068176 C-9 65 -9 65 -11 68 C-11.66 67.67 -12.32 67.34 -13 67 C-12.505 66.505 -12.505 66.505 -12 66 C-11.70642395 59.96385342 -11.6858442 53.92517133 -11.64990234 47.88256836 C-11.63337245 45.84469153 -11.60612178 43.80687197 -11.56787109 41.76928711 C-11.51298711 38.83156235 -11.49120733 35.89520033 -11.4765625 32.95703125 C-11.45389313 32.05056351 -11.43122375 31.14409576 -11.40786743 30.2101593 C-11.42860527 23.97279571 -12.5961331 21.41069261 -17 17 C-18.09783318 13.96451656 -18.29353893 11.21166122 -18 8 C-14.0347235 -0.23557428 -8.52003351 -2.28850265 0 0 Z " fill="#1D6DAC" transform="translate(372,412)"/>
<path d="M0 0 C4.78608041 0.26589336 7.29842251 1.10814259 11 4 C18.70349308 6.8699288 25.71520705 6.99486534 33.29296875 3.87109375 C35.16211169 2.99450536 35.16211169 2.99450536 37.125 1.25 C39 0 39 0 42.125 0.1875 C45 1 45 1 47 3 C47.125 6.3125 47.125 6.3125 46 10 C43.60230032 12.23111013 40.93623932 13.58625514 38 15 C36.2675 15.8971875 36.2675 15.8971875 34.5 16.8125 C26.89684723 19.43220016 16.25881626 19.42165622 8.875 16.25 C7.56136464 15.5391801 6.26673953 14.79137459 5 14 C4.40574219 13.65324219 3.81148438 13.30648437 3.19921875 12.94921875 C0.36710406 11.19857984 -1.12687513 9.8096873 -3 7 C-2.6758631 3.67759676 -2.39223697 2.39223697 0 0 Z " fill="#1C356E" transform="translate(490,558)"/>
<path d="M0 0 C1.875 0.3125 1.875 0.3125 4 1 C6.3111349 4.46670236 6.24298883 5.85654877 6.1875 9.9375 C6.17783203 11.49791016 6.17783203 11.49791016 6.16796875 13.08984375 C6.02535748 15.56066692 5.71031012 17.64177041 5 20 C3.68 20.33 2.36 20.66 1 21 C1.00580078 21.82064941 1.01160156 22.64129883 1.01757812 23.48681641 C1.05404429 32.79480484 0.82623552 42.07400342 0.5 51.375 C0.45160782 52.80468024 0.40342976 54.23436774 0.35546875 55.6640625 C0.23943423 59.10946183 0.1205483 62.55475529 0 66 C-0.66 66 -1.32 66 -2 66 C-2.12372902 59.82535087 -2.21440144 53.65142544 -2.2746582 47.47583008 C-2.29978051 45.3757673 -2.33388458 43.27579177 -2.37719727 41.17602539 C-2.43794871 38.1548916 -2.46623263 35.13491504 -2.48828125 32.11328125 C-2.51408768 31.17664139 -2.5398941 30.24000153 -2.56648254 29.27497864 C-2.56931141 22.67924274 -2.56931141 22.67924274 0.46801758 19.05541992 C1.30357178 18.37713135 2.13912598 17.69884277 3 17 C4.4206122 12.73816341 5.10270083 8.28726155 3.10546875 4.14453125 C2.14239828 2.71183632 1.07841247 1.34801559 0 0 Z " fill="#D4EEFB" transform="translate(665,413)"/>
<path d="M0 0 C1.56240032 -0.02730408 3.1249427 -0.04653226 4.6875 -0.0625 C5.55761719 -0.07410156 6.42773438 -0.08570313 7.32421875 -0.09765625 C10 0 10 0 12.2734375 0.47265625 C16.14382717 1.22122732 20.00473651 1.32663736 23.9375 1.5 C29.0500365 1.72647824 33.94879098 2.13569775 39 3 C40.87343202 3.08725574 42.74954453 3.13028297 44.625 3.125 C45.54539062 3.12757813 46.46578125 3.13015625 47.4140625 3.1328125 C49.9105826 3.09318093 49.9105826 3.09318093 51.90478516 2.49780273 C54.05738721 1.98636536 55.90125958 1.8856156 58.109375 1.90234375 C58.86347656 1.90556641 59.61757813 1.90878906 60.39453125 1.91210938 C61.17183594 1.92048828 61.94914063 1.92886719 62.75 1.9375 C63.54277344 1.94201172 64.33554687 1.94652344 65.15234375 1.95117188 C67.10159508 1.96291435 69.05080738 1.98084854 71 2 C57.02242245 10.12745802 29.82259588 5.22573686 14.5625 3.625 C12.73138672 3.43599121 12.73138672 3.43599121 10.86328125 3.24316406 C2.25841801 2.25841801 2.25841801 2.25841801 0 0 Z " fill="#2772A5" transform="translate(470,615)"/>
<path d="M0 0 C2.7989482 2.7989482 2.34218554 5.46047015 2.37109375 9.2109375 C2.38012222 9.93431305 2.3891507 10.6576886 2.39845276 11.40298462 C2.4129839 12.94130308 2.4218491 14.47968374 2.42553711 16.01806641 C2.43728267 18.33218109 2.48629777 20.64349226 2.53710938 22.95703125 C2.65963312 34.06273061 1.29818519 43.72211496 -6.625 52.1875 C-8.86284435 54.26839147 -10.02898524 55.00966175 -13 56 C-13 55.34 -13 54.68 -13 54 C-12.34 54 -11.68 54 -11 54 C-10.34 52.35 -9.68 50.7 -9 49 C-8.34 49 -7.68 49 -7 49 C-7 48.34 -7 47.68 -7 47 C-6.01 47 -5.02 47 -4 47 C-4 45.68 -4 44.36 -4 43 C-3.34 43 -2.68 43 -2 43 C-1.03792883 38.07666069 -0.79085787 33.31599597 -0.68359375 28.3203125 C-0.66281265 27.50754852 -0.64203156 26.69478455 -0.62062073 25.85739136 C-0.55562421 23.28000743 -0.49647407 20.70252806 -0.4375 18.125 C-0.39426723 16.36978209 -0.35065148 14.61457357 -0.30664062 12.859375 C-0.19999451 8.57301262 -0.09858886 4.28655496 0 0 Z " fill="#3C79A8" transform="translate(675,497)"/>
<path d="M0 0 C1.35335895 0.97272675 2.68662604 1.9739266 4 3 C6.31347872 3.73260159 8.645752 4.411438 11 5 C11 5.33 11 5.66 11 6 C6.83861737 6.08159574 3.0527516 5.98248524 -1 5 C-1.33 5.66 -1.66 6.32 -2 7 C-2.66 7 -3.32 7 -4 7 C-4 7.99 -4 8.98 -4 10 C-1.525 10.99 -1.525 10.99 1 12 C1 12.66 1 13.32 1 14 C-3.00161251 12.62801857 -5.99362597 11.00637403 -9 8 C-10 4.9375 -10 4.9375 -10 2 C-7.76108948 -2.33788914 -4.14577696 -1.01826101 0 0 Z " fill="#173C75" transform="translate(497,559)"/>
<path d="M0 0 C0.33 0 0.66 0 1 0 C1.08636719 0.67546875 1.17273438 1.3509375 1.26171875 2.046875 C1.40222656 2.93890625 1.54273438 3.8309375 1.6875 4.75 C1.81511719 5.63171875 1.94273437 6.5134375 2.07421875 7.421875 C2.78308766 10.22490931 2.78308766 10.22490931 5.52734375 11.60351562 C8.21025446 14.20377743 8.36764326 14.53879757 8.56762695 18.03417969 C8.56683853 19.66362593 8.53877184 21.29321101 8.48828125 22.921875 C8.47766914 24.21185394 8.47766914 24.21185394 8.46684265 25.52789307 C8.43889611 28.2694875 8.3761598 31.009025 8.3125 33.75 C8.28741734 35.61064755 8.26460411 37.47132717 8.24414062 39.33203125 C8.18906887 43.88881106 8.10279655 48.44405704 8 53 C4.04 52.505 4.04 52.505 0 52 C0 51.67 0 51.34 0 51 C1.98 51 3.96 51 6 51 C5.98053311 45.98212283 5.92867687 40.96598809 5.84741211 35.94873047 C5.8242844 34.24374904 5.80984867 32.53862581 5.80444336 30.83349609 C5.79511488 28.37508313 5.75404475 25.91888422 5.70703125 23.4609375 C5.7109639 22.70444916 5.71489655 21.94796082 5.71894836 21.16854858 C5.56263204 15.43657591 3.9117403 13.13913133 0 9 C-0.48828125 6.4453125 -0.48828125 6.4453125 -0.3125 4.125 C-0.26738281 3.34382813 -0.22226562 2.56265625 -0.17578125 1.7578125 C-0.11777344 1.17773438 -0.05976562 0.59765625 0 0 Z " fill="#BCDDEE" transform="translate(645,421)"/>
<path d="M0 0 C0.99 1.32 1.98 2.64 3 4 C0.702779 5.74271938 -1.59866729 7.39911152 -4 9 C-4.33777149 11.75900757 -4.48897979 14.30483257 -4.51171875 17.0703125 C-4.52966995 17.86654022 -4.54762115 18.66276794 -4.56611633 19.48312378 C-4.62036969 22.0303617 -4.65416212 24.57741071 -4.6875 27.125 C-4.72065993 28.8502868 -4.75514834 30.57554861 -4.79101562 32.30078125 C-4.87610435 36.53371813 -4.94284307 40.76659753 -5 45 C-3.03506426 44.65479552 -3.03506426 44.65479552 -1 44 C0.28436734 42.0162233 0.28436734 42.0162233 1 40 C1.66 40 2.32 40 3 40 C2.34 41.98 1.68 43.96 1 46 C-1.31 46 -3.62 46 -6 46 C-6.12381149 40.53743725 -6.21443826 35.07569512 -6.2746582 29.61206055 C-6.29976702 27.75449391 -6.33386134 25.89702573 -6.37719727 24.03979492 C-6.43801124 21.36612642 -6.4662452 18.69376635 -6.48828125 16.01953125 C-6.51408768 15.19226028 -6.5398941 14.36498932 -6.56648254 13.51264954 C-6.56860739 9.12160634 -6.46186837 7.54995643 -3.53198242 4.0612793 C-2.69642822 3.38105713 -1.86087402 2.70083496 -1 2 C-0.67 1.34 -0.34 0.68 0 0 Z " fill="#E7FCFF" transform="translate(378,427)"/>
<path d="M0 0 C4.6132914 -0.07562773 9.07290506 -0.02956467 13.65625 0.5 C21.98367096 1.28911994 30.33197484 1.10615134 38.6875 1.0625 C40.37174346 1.05747338 42.05598837 1.05291253 43.74023438 1.04882812 C47.82685953 1.03791827 51.91341328 1.02071821 56 1 C55.67 1.66 55.34 2.32 55 3 C50.26508707 4.16806625 45.5825995 4.08488664 40.7421875 3.94921875 C39.95788361 3.9303511 39.17357971 3.91148346 38.36550903 3.89204407 C36.70974177 3.8503237 35.05404768 3.80560386 33.3984375 3.75805664 C30.90378331 3.6883048 28.40911099 3.63359983 25.9140625 3.58007812 C17.12091968 3.35993695 8.63905225 2.8205023 0 1 C0 0.67 0 0.34 0 0 Z " fill="#E3F8FD" transform="translate(480,618)"/>
<path d="M0 0 C-0.66 0.66 -1.32 1.32 -2 2 C-2.78375 1.67 -3.5675 1.34 -4.375 1 C-10.75075366 -0.7588286 -16.51118056 -1.07063106 -22.5 2 C-23.1290625 2.37125 -23.758125 2.7425 -24.40625 3.125 C-26 4 -26 4 -28 4 C-28.66 5.32 -29.32 6.64 -30 8 C-30.66 7.67 -31.32 7.34 -32 7 C-24.49923475 -3.80110196 -11.33639345 -5.91464006 0 0 Z " fill="#103E76" transform="translate(589,499)"/>
<path d="M0 0 C0.33 0 0.66 0 1 0 C1.01458252 1.05388916 1.02916504 2.10777832 1.04418945 3.19360352 C1.10244945 7.12818213 1.17967904 11.06220493 1.26245117 14.99633789 C1.29557083 16.69448786 1.32364261 18.39274448 1.34643555 20.09106445 C1.38022169 22.54163787 1.43254639 24.99124531 1.48828125 27.44140625 C1.49467117 28.19273331 1.5010611 28.94406036 1.50764465 29.71815491 C1.64875917 34.85266293 2.8359665 38.35270837 5 43 C5 43.99 5 44.98 5 46 C5.99 46.33 6.98 46.66 8 47 C7.67 47.99 7.34 48.98 7 50 C1.34528736 43.37033691 -0.45366917 38.41514226 -0.29296875 29.8828125 C-0.28872391 29.02565643 -0.28447906 28.16850037 -0.28010559 27.28536987 C-0.26339886 24.56491836 -0.22576219 21.84522518 -0.1875 19.125 C-0.17244278 17.27344825 -0.1587562 15.42188481 -0.14648438 13.5703125 C-0.11352165 9.04658567 -0.06179537 4.52342113 0 0 Z " fill="#16659C" transform="translate(348,498)"/>
<path d="M0 0 C0.75410156 0.00322266 1.50820313 0.00644531 2.28515625 0.00976562 C3.06246094 0.01814453 3.83976563 0.02652344 4.640625 0.03515625 C5.43339844 0.03966797 6.22617187 0.04417969 7.04296875 0.04882812 C8.99222008 0.0605706 10.94143238 0.07850479 12.890625 0.09765625 C4.67996267 4.84859358 -7.17527671 3.23063634 -16.359375 3.16015625 C-17.49761719 3.15564453 -18.63585937 3.15113281 -19.80859375 3.14648438 C-22.57557909 3.13485839 -25.34244658 3.11852056 -28.109375 3.09765625 C-28.109375 2.76765625 -28.109375 2.43765625 -28.109375 2.09765625 C-27.23200684 2.06007202 -27.23200684 2.06007202 -26.33691406 2.02172852 C-23.67753029 1.90542663 -21.01847097 1.78285558 -18.359375 1.66015625 C-16.97878906 1.60118164 -16.97878906 1.60118164 -15.5703125 1.54101562 C-14.68085937 1.49912109 -13.79140625 1.45722656 -12.875 1.4140625 C-12.05805664 1.37740479 -11.24111328 1.34074707 -10.39941406 1.30297852 C-8.13161517 1.1598579 -8.13161517 1.1598579 -6.06835938 0.58398438 C-3.96947989 0.06292656 -2.15938009 -0.01635894 0 0 Z " fill="#488AB8" transform="translate(528.109375,616.90234375)"/>
<path d="M0 0 C0.99 0.33 1.98 0.66 3 1 C2.65066406 1.54269531 2.30132812 2.08539063 1.94140625 2.64453125 C1.25884766 3.71767578 1.25884766 3.71767578 0.5625 4.8125 C0.11003906 5.52019531 -0.34242188 6.22789062 -0.80859375 6.95703125 C-2.95877365 10.64406105 -3.24728448 13.99963664 -3.5625 18.1875 C-3.64628906 19.27417969 -3.73007812 20.36085938 -3.81640625 21.48046875 C-3.87699219 22.31191406 -3.93757813 23.14335938 -4 24 C-7.83128417 18.25307374 -5.6940232 11.54722968 -4.4375 5.125 C-4.293125 4.42375 -4.14875 3.7225 -4 3 C-2.68 2.67 -1.36 2.34 0 2 C0 1.34 0 0.68 0 0 Z " fill="#3EBBDF" transform="translate(429,501)"/>
<path d="M0 0 C5.17882704 2.44944522 9.21235371 4.83621712 12 10 C13.02107634 16.59284155 12.49221943 23.37396916 12 30 C11.67 30 11.34 30 11 30 C11 24.06 11 18.12 11 12 C10.01 11.67 9.02 11.34 8 11 C8 10.34 8 9.68 8 9 C7.34 9 6.68 9 6 9 C4.4921875 7.5390625 4.4921875 7.5390625 2.875 5.625 C2.06675781 4.68527344 2.06675781 4.68527344 1.2421875 3.7265625 C0 2 0 2 0 0 Z " fill="#39426D" transform="translate(364,634)"/>
<path d="M0 0 C2.46948242 1.38769531 2.46948242 1.38769531 5 4 C5.71946109 7.26260496 5.58161378 10.46982987 5.48828125 13.796875 C5.48120651 14.74564514 5.47413177 15.69441528 5.46684265 16.67193604 C5.43887994 19.69876343 5.37613758 22.72373291 5.3125 25.75 C5.28741957 27.80335868 5.26460596 29.85674639 5.24414062 31.91015625 C5.18904694 36.94081874 5.10276083 41.97009452 5 47 C4.67 47 4.34 47 4 47 C3.98541748 45.77893555 3.97083496 44.55787109 3.95581055 43.29980469 C3.89781435 38.76711828 3.82058143 34.23492796 3.73754883 29.70263672 C3.70430572 27.74145564 3.67627185 25.78017902 3.65356445 23.81884766 C3.62000719 20.99860953 3.56769101 18.17924635 3.51171875 15.359375 C3.50213387 14.04510529 3.50213387 14.04510529 3.49235535 12.70428467 C3.38281231 8.16327837 3.27251939 5.4330704 0 2 C0 1.34 0 0.68 0 0 Z " fill="#D6F6FE" transform="translate(356,431)"/>
<path d="M0 0 C1.62580966 0.11398665 3.25067157 0.24155659 4.875 0.375 C5.77992188 0.44460938 6.68484375 0.51421875 7.6171875 0.5859375 C10 1 10 1 12 3 C12 3.99 12 4.98 12 6 C12.66 6 13.32 6 14 6 C14.66 9.3 15.32 12.6 16 16 C16.99 16.33 17.98 16.66 19 17 C18.34 18.32 17.68 19.64 17 21 C16.040062 18.93824636 15.08211576 16.87556531 14.125 14.8125 C13.32449219 13.08966797 13.32449219 13.08966797 12.5078125 11.33203125 C11 8 11 8 10.09375 5.15625 C9.19302184 2.80863395 9.19302184 2.80863395 6.8359375 2.07421875 C6.02382813 1.94660156 5.21171875 1.81898438 4.375 1.6875 C3.55773437 1.54699219 2.74046875 1.40648437 1.8984375 1.26171875 C1.27195312 1.17535156 0.64546875 1.08898437 0 1 C0 0.67 0 0.34 0 0 Z " fill="#2972AA" transform="translate(367,555)"/>
<path d="M0 0 C25.12879713 -0.40530318 25.12879713 -0.40530318 30.78515625 4.5703125 C31.18605469 5.04210937 31.58695313 5.51390625 32 6 C25.12558984 5.20744058 18.32198391 4.0921779 11.5 2.9375 C10.39140625 2.75123047 9.2828125 2.56496094 8.140625 2.37304688 C5.42682981 1.91684855 2.7133005 1.45912975 0 1 C0 0.67 0 0.34 0 0 Z " fill="#CDEAF6" transform="translate(536,398)"/>
<path d="M0 0 C2.31 0.33 4.62 0.66 7 1 C2.91212613 4.69227317 -1.6978641 7.45393891 -7 9 C-9.27734375 8.60546875 -9.27734375 8.60546875 -11 8 C-10.67 7.34 -10.34 6.68 -10 6 C-7.67843403 5.59270772 -5.3431213 5.25561323 -3 5 C-3 4.34 -3 3.68 -3 3 C-2.34 3 -1.68 3 -1 3 C-0.67 2.01 -0.34 1.02 0 0 Z " fill="#2371AB" transform="translate(611,594)"/>
<path d="M0 0 C3 0 3 0 5 1 C5 1.66 5 2.32 5 3 C5.99 3.33 6.98 3.66 8 4 C7.01 4 6.02 4 5 4 C4.896875 4.845625 4.79375 5.69125 4.6875 6.5625 C3.9171146 10.41442701 2.63725486 13.44075031 1 17 C-0.217183 13.348451 0.32941313 10.98264783 0.94140625 7.25390625 C1.0099368 4.6177644 0.33977558 3.23635543 -1 1 C-0.67 0.67 -0.34 0.34 0 0 Z " fill="#2574AF" transform="translate(642,554)"/>
<path d="M0 0 C0.66 0 1.32 0 2 0 C0.28672722 7.04889372 -2.56373892 12.12490136 -8 17 C-10.22265625 18.22265625 -10.22265625 18.22265625 -12 19 C-12 18.34 -12 17.68 -12 17 C-11.34 17 -10.68 17 -10 17 C-9.34 15.35 -8.68 13.7 -8 12 C-7.34 12 -6.68 12 -6 12 C-6 11.34 -6 10.68 -6 10 C-5.01 10 -4.02 10 -3 10 C-3 8.68 -3 7.36 -3 6 C-2.34 6 -1.68 6 -1 6 C-0.67 4.02 -0.34 2.04 0 0 Z " fill="#2B6EA7" transform="translate(674,534)"/>
<path d="M0 0 C3.5044103 1.89427584 6.15433427 3.40580883 8 7 C8.54127592 12.5931845 8.1763372 16.17667314 5 21 C4.01 21.33 3.02 21.66 2 22 C2 21.01 2 20.02 2 19 C2.99 19 3.98 19 5 19 C5 17.35 5 15.7 5 14 C5.66 14 6.32 14 7 14 C6.77139942 12.53815942 6.51629608 11.08044581 6.25 9.625 C6.11078125 8.81289063 5.9715625 8.00078125 5.828125 7.1640625 C4.76397049 4.38320591 3.63168166 4.19150941 1 3 C0.67 2.01 0.34 1.02 0 0 Z " fill="#3474A8" transform="translate(662,412)"/>
<path d="M0 0 C0.99 0.33 1.98 0.66 3 1 C1.68 4.63 0.36 8.26 -1 12 C0.65 12.33 2.3 12.66 4 13 C4 13.99 4 14.98 4 16 C3.01 16.66 2.02 17.32 1 18 C1 17.01 1 16.02 1 15 C0.01 14.34 -0.98 13.68 -2 13 C-2.46271324 8.18778226 -1.74817615 4.47970138 0 0 Z " fill="#2A335F" transform="translate(364,701)"/>
<path d="M0 0 C1.39623914 2.79247828 0.67281124 4.46838862 0.0625 7.5 C-0.72140584 11.22517571 -0.72140584 11.22517571 -1 15 C-0.34 15 0.32 15 1 15 C0.67 15.99 0.34 16.98 0 18 C-3.41953494 15.08088481 -3.76518801 12.64036926 -4.1484375 8.296875 C-3.90961518 4.6014139 -2.35657618 2.78504458 0 0 Z " fill="#2A77A8" transform="translate(358,414)"/>
<path d="M0 0 C1.55968308 5.33861672 -0.55437582 9.17289916 -3 14 C-5.25 16.625 -5.25 16.625 -7 18 C-7.33 17.34 -7.66 16.68 -8 16 C-7.37915039 14.30419922 -7.37915039 14.30419922 -6.34765625 12.3046875 C-5.98349609 11.58925781 -5.61933594 10.87382813 -5.24414062 10.13671875 C-4.85419922 9.39035156 -4.46425781 8.64398437 -4.0625 7.875 C-3.67642578 7.12089844 -3.29035156 6.36679687 -2.89257812 5.58984375 C-1.93547868 3.72290903 -0.96863894 1.86097372 0 0 Z " fill="#2F3D6B" transform="translate(344,706)"/>
<path d="M0 0 C0.81210937 0.55300781 0.81210937 0.55300781 1.640625 1.1171875 C0.640625 3.1171875 0.640625 3.1171875 -1.13671875 3.78515625 C-1.84957031 3.95660156 -2.56242187 4.12804687 -3.296875 4.3046875 C-4.00714844 4.48386719 -4.71742188 4.66304687 -5.44921875 4.84765625 C-7.359375 5.1171875 -7.359375 5.1171875 -9.359375 4.1171875 C-10.68798425 3.76549682 -12.02095828 3.42948474 -13.359375 3.1171875 C-11.61703675 2.39021189 -9.86510155 1.68620506 -8.109375 0.9921875 C-7.13484375 0.59773437 -6.1603125 0.20328125 -5.15625 -0.203125 C-2.359375 -0.8828125 -2.359375 -0.8828125 0 0 Z " fill="#2D3B74" transform="translate(387.359375,706.8828125)"/>
<path d="M0 0 C0.33 0.66 0.66 1.32 1 2 C0.401875 2.928125 -0.19625 3.85625 -0.8125 4.8125 C-4.02198796 10.0320825 -4.31695262 16.02333543 -5 22 C-5.33 22 -5.66 22 -6 22 C-6.4724754 14.12541005 -6.24928226 8.74886006 -2 2 C-1.34 1.34 -0.68 0.68 0 0 Z " fill="#0E4178" transform="translate(431,503)"/>
<path d="M0 0 C4.29 0 8.58 0 13 0 C13 3.96 13 7.92 13 12 C12.34 12 11.68 12 11 12 C11 8.7 11 5.4 11 2 C7.37 1.67 3.74 1.34 0 1 C0 0.67 0 0.34 0 0 Z " fill="#C7F5FB" transform="translate(493,665)"/>
<path d="M0 0 C0 0.33 0 0.66 0 1 C-0.90492188 1.07347656 -0.90492188 1.07347656 -1.828125 1.1484375 C-2.62734375 1.22320312 -3.4265625 1.29796875 -4.25 1.375 C-5.43335938 1.47941406 -5.43335938 1.47941406 -6.640625 1.5859375 C-9.12420279 2.02179718 -10.85610211 2.68357147 -13 4 C-14.26804566 6.0335948 -14.26804566 6.0335948 -15 8 C-16.65 7.67 -18.3 7.34 -20 7 C-13.64284428 0.09794522 -9.01058564 -0.31493309 0 0 Z " fill="#124077" transform="translate(452,496)"/>
<path d="M0 0 C3 0 3 0 5.0625 1.9375 C5.701875 2.618125 6.34125 3.29875 7 4 C7.66 4.33 8.32 4.66 9 5 C9 5.66 9 6.32 9 7 C10.65 7 12.3 7 14 7 C14 7.33 14 7.66 14 8 C6.8173913 8.48695652 6.8173913 8.48695652 3.0625 6.25 C1.0389522 4.04249331 0.3141111 2.93170364 0 0 Z " fill="#253565" transform="translate(336,728)"/>
<path d="M0 0 C0.99 0.33 1.98 0.66 3 1 C5.76914577 9.09091974 6.46781587 17.51000834 6 26 C5.67 26 5.34 26 5 26 C4.89042969 25.12859375 4.78085937 24.2571875 4.66796875 23.359375 C3.60901372 15.40429817 2.12586971 7.73816576 0 0 Z " fill="#0A7EB7" transform="translate(626,476)"/>
<path d="M0 0 C0.33 0 0.66 0 1 0 C1.92017937 11.33183857 1.92017937 11.33183857 -0.3359375 15.421875 C-1.80841926 17.0948355 -3.27655655 18.58944361 -5 20 C-5.66 19.67 -6.32 19.34 -7 19 C-6.38125 18.29875 -5.7625 17.5975 -5.125 16.875 C-1.25903939 11.6445827 -0.6517802 6.30054191 0 0 Z " fill="#3DB2D7" transform="translate(470,516)"/>
<path d="M0 0 C0.99 0.33 1.98 0.66 3 1 C3 1.66 3 2.32 3 3 C3.99 3.33 4.98 3.66 6 4 C6.33 7.96 6.66 11.92 7 16 C5.30733254 12.61466508 3.81854415 9.24489637 2.375 5.75 C1.92898438 4.67234375 1.48296875 3.5946875 1.0234375 2.484375 C0.68570313 1.66453125 0.34796875 0.8446875 0 0 Z " fill="#E0F6FB" transform="translate(638,456)"/>
<path d="M0 0 C0.99 0.66 1.98 1.32 3 2 C1.92130607 2.96355244 0.83681257 3.92061417 -0.25 4.875 C-0.85328125 5.40867187 -1.4565625 5.94234375 -2.078125 6.4921875 C-5.11044461 8.87120248 -7.10651396 10 -11 10 C-10.67 9.01 -10.34 8.02 -10 7 C-7.95376487 6.29440168 -6.02213093 6.00260364 -3.875 5.75 C-1.70636116 5.12602089 -1.70636116 5.12602089 -0.75 2.4375 C-0.37875 1.2309375 -0.37875 1.2309375 0 0 Z " fill="#37BFEB" transform="translate(615,570)"/>
<path d="M0 0 C2.64 0 5.28 0 8 0 C7.38125 0.268125 6.7625 0.53625 6.125 0.8125 C3.7004767 1.95556848 3.7004767 1.95556848 2 5 C1.65777555 9.65417169 1.65777555 9.65417169 3 14 C2.01 14 1.02 14 0 14 C0 9.38 0 4.76 0 0 Z " fill="#40C1F0" transform="translate(490,428)"/>
<path d="M0 0 C0.66 0.99 1.32 1.98 2 3 C2.99 3.66 3.98 4.32 5 5 C4.01 5.99 3.02 6.98 2 8 C2 7.34 2 6.68 2 6 C1.21625 5.731875 0.4325 5.46375 -0.375 5.1875 C-3 4 -3 4 -5 1 C-2 0 -2 0 0 0 Z " fill="#2371AD" transform="translate(652,429)"/>
<path d="M0 0 C2.21332884 3.48516705 2.04596003 5.63444361 1.25 9.625 C0.97929687 11.06746094 0.97929687 11.06746094 0.703125 12.5390625 C0 15 0 15 -2 17 C-2.25706972 11.08739655 -1.2982126 5.76081841 0 0 Z " fill="#39436C" transform="translate(355,668)"/>
<path d="M0 0 C5 9.61538462 5 9.61538462 5 14 C5.99 14.33 6.98 14.66 8 15 C7.67 15.99 7.34 16.98 7 18 C2.01564637 12.15627506 -0.46912324 7.81872072 0 0 Z " fill="#2B71A2" transform="translate(348,530)"/>
<path d="M0 0 C0.66 0 1.32 0 2 0 C2.36463732 1.74784829 2.7163078 3.49840502 3.0625 5.25 C3.25972656 6.22453125 3.45695313 7.1990625 3.66015625 8.203125 C3.98397535 10.868119 3.85503199 12.48871723 3 15 C0.73045369 11.59568053 0.63450051 9.83475798 0.375 5.8125 C0.30023437 4.72582031 0.22546875 3.63914062 0.1484375 2.51953125 C0.09945312 1.68808594 0.05046875 0.85664063 0 0 Z " fill="#38446E" transform="translate(722,456)"/>
<path d="M0 0 C0.625 1.875 0.625 1.875 1 4 C0.34 4.66 -0.32 5.32 -1 6 C-1.99 6 -2.98 6 -4 6 C-4.66 7.32 -5.32 8.64 -6 10 C-6.99 9.67 -7.98 9.34 -9 9 C-6 6 -3 3 0 0 Z " fill="#0F7EBB" transform="translate(621,568)"/>
<path d="M0 0 C3.96 0 7.92 0 12 0 C12 0.33 12 0.66 12 1 C11.04287109 1.09087891 11.04287109 1.09087891 10.06640625 1.18359375 C9.24011719 1.26738281 8.41382813 1.35117187 7.5625 1.4375 C6.32693359 1.55931641 6.32693359 1.55931641 5.06640625 1.68359375 C3.01337975 1.78930815 3.01337975 1.78930815 2 3 C1.76636119 4.84891946 1.58696365 6.70488031 1.4375 8.5625 C1.35371094 9.57441406 1.26992188 10.58632813 1.18359375 11.62890625 C1.12300781 12.41136719 1.06242188 13.19382812 1 14 C0.67 14 0.34 14 0 14 C0 9.38 0 4.76 0 0 Z " fill="#0874AE" transform="translate(520,443)"/>
<path d="M0 0 C0.66 0.33 1.32 0.66 2 1 C1.401875 1.721875 0.80375 2.44375 0.1875 3.1875 C-1.7788293 5.71563767 -3.39845331 8.23369208 -5 11 C-5.99 12.485 -5.99 12.485 -7 14 C-7.66 13.67 -8.32 13.34 -9 13 C-6.03 8.71 -3.06 4.42 0 0 Z " fill="#E6ECF5" transform="translate(353,387)"/>
<path d="M0 0 C-1.423125 0.8353125 -1.423125 0.8353125 -2.875 1.6875 C-6.15241188 4.11278479 -6.786038 5.25695052 -8 9 C-8.99 9.495 -8.99 9.495 -10 10 C-9.57781184 8.3501725 -9.13675575 6.70516335 -8.6875 5.0625 C-8.44386719 4.14597656 -8.20023438 3.22945312 -7.94921875 2.28515625 C-7.47935547 1.15400391 -7.47935547 1.15400391 -7 0 C-3.86650268 -1.04449911 -3.01031744 -0.93423645 0 0 Z " fill="#D4EEF9" transform="translate(654,558)"/>
<path d="M0 0 C0.33 0 0.66 0 1 0 C2.46842878 6.24082232 2.46842878 6.24082232 0.1875 9.9375 C-2 12 -2 12 -4 12 C-2.66666667 8 -1.33333333 4 0 0 Z " fill="#D9EDF7" transform="translate(676,533)"/>
<path d="M0 0 C0 0.99 0 1.98 0 3 C-3.52381313 6.44186399 -5.95030484 8.55443866 -11 9 C-7.67149253 5.40521193 -4.01028669 2.77635232 0 0 Z " fill="#E2E9F2" transform="translate(429,701)"/>
<path d="M0 0 C1.79458945 0.22807491 3.58575449 0.48322303 5.375 0.75 C6.87160156 0.95882812 6.87160156 0.95882812 8.3984375 1.171875 C9.25695312 1.44515625 10.11546875 1.7184375 11 2 C11.66 3.32 12.32 4.64 13 6 C8.71 4.68 4.42 3.36 0 2 C0 1.34 0 0.68 0 0 Z " fill="#C5E3F2" transform="translate(365,555)"/>
<path d="M0 0 C0.66 0.99 1.32 1.98 2 3 C2.680625 3.33 3.36125 3.66 4.0625 4 C6 5 6 5 7 8 C6.484375 7.71125 5.96875 7.4225 5.4375 7.125 C2.37643275 5.71219973 -0.74944918 4.8751483 -4 4 C-3.34 3.67 -2.68 3.34 -2 3 C-2 2.34 -2 1.68 -2 1 C-1.34 0.67 -0.68 0.34 0 0 Z " fill="#3BB7DD" transform="translate(494,554)"/>
<path d="M0 0 C5.5952381 0.5952381 5.5952381 0.5952381 8 3 C5.69 2.67 3.38 2.34 1 2 C0.87625 2.78375 0.7525 3.5675 0.625 4.375 C0 7 0 7 -2 9 C-1.125 1.125 -1.125 1.125 0 0 Z " fill="#3ABEEC" transform="translate(576,428)"/>
<path d="M0 0 C0.33 1.32 0.66 2.64 1 4 C-0.4375 6.25 -0.4375 6.25 -2 8 C-3.32 7.67 -4.64 7.34 -6 7 C-4.02 4.69 -2.04 2.38 0 0 Z " fill="#303A6B" transform="translate(346,365)"/>
<path d="M0 0 C0.66 0.66 1.32 1.32 2 2 C1.34 2 0.68 2 0 2 C-0.28875 2.804375 -0.5775 3.60875 -0.875 4.4375 C-2 7 -2 7 -4 8 C-4 6.02 -4 4.04 -4 2 C-2.68 1.34 -1.36 0.68 0 0 Z " fill="#192963" transform="translate(386,330)"/>
<path d="M0 0 C1.258125 0.12375 2.51625 0.2475 3.8125 0.375 C4.87404297 0.47941406 4.87404297 0.47941406 5.95703125 0.5859375 C8 1 8 1 11 3 C7.37 3 3.74 3 0 3 C0 2.01 0 1.02 0 0 Z " fill="#EDFEFF" transform="translate(508,636)"/>
<path d="M0 0 C2.95409701 1.37154504 5.44008376 2.98863724 8 5 C5.69 5.33 3.38 5.66 1 6 C0.67 4.02 0.34 2.04 0 0 Z " fill="#0D7CB8" transform="translate(409,575)"/>
<path d="M0 0 C0.6875 1.8125 0.6875 1.8125 1 4 C-0.64504011 6.46756016 -1.80299352 6.94960299 -4.6875 7.6875 C-5.8321875 7.8421875 -5.8321875 7.8421875 -7 8 C-6.02133662 6.85373678 -5.04205413 5.70800212 -4.0625 4.5625 C-3.51722656 3.92441406 -2.97195313 3.28632813 -2.41015625 2.62890625 C-1.63204305 1.73008851 -0.84063472 0.84063472 0 0 Z " fill="#2B76AA" transform="translate(406,429)"/>
<path d="M0 0 C0.99 1.32 1.98 2.64 3 4 C0.06171403 6.50298434 -2.17902761 7.46930939 -6 8 C-4.73046875 6.50260417 -3.4609375 5.00520833 -2.19140625 3.5078125 C-0.9121848 1.99405921 -0.9121848 1.99405921 0 0 Z " fill="#D9EDF4" transform="translate(378,427)"/>
<path d="M0 0 C0.66 1.32 1.32 2.64 2 4 C0.03533587 5.06775224 -1.96855359 6.06553465 -4 7 C-4.66 6.67 -5.32 6.34 -6 6 C-4.02 4.02 -2.04 2.04 0 0 Z " fill="#2B3A6A" transform="translate(422,681)"/>
<path d="M0 0 C1.60080151 4.00200378 0.29279692 7.04556236 -1 11 C-1.66 10.67 -2.32 10.34 -3 10 C-2.49287967 6.28111761 -1.88391785 3.26545761 0 0 Z " fill="#2674AB" transform="translate(351,488)"/>
<path d="M0 0 C1.65 0 3.3 0 5 0 C5 0.99 5 1.98 5 3 C3.35 3.66 1.7 4.32 0 5 C0 3.35 0 1.7 0 0 Z " fill="#2E3D70" transform="translate(415,706)"/>
<path d="M0 0 C0.33 0 0.66 0 1 0 C1.390625 5.859375 1.390625 5.859375 1 8 C-0.32 9.32 -1.64 10.64 -3 12 C-2.01 8.04 -1.02 4.08 0 0 Z " fill="#3A486F" transform="translate(351,686)"/>
<path d="M0 0 C1 2 1 2 0.4375 4 C-1.57302108 6.79724672 -3.74418077 7.15065585 -7 8 C-6.02133662 6.85373678 -5.04205413 5.70800212 -4.0625 4.5625 C-3.51722656 3.92441406 -2.97195313 3.28632812 -2.41015625 2.62890625 C-1.63204305 1.73008851 -0.84063472 0.84063472 0 0 Z " fill="#333D6C" transform="translate(655,637)"/>
<path d="M0 0 C3.3 0 6.6 0 10 0 C10 0.66 10 1.32 10 2 C8.63875 1.938125 8.63875 1.938125 7.25 1.875 C4.1217954 1.99531556 2.61385994 2.3914708 0 4 C0 2.68 0 1.36 0 0 Z " fill="#3CB8DD" transform="translate(525,557)"/>
<path d="M0 0 C1.98 0.66 3.96 1.32 6 2 C6.33 3.98 6.66 5.96 7 8 C1.125 3.375 1.125 3.375 0 0 Z " fill="#123F75" transform="translate(556,529)"/>
<path d="M0 0 C2.3125 0.1875 2.3125 0.1875 5 1 C6.8125 3.5625 6.8125 3.5625 8 6 C5 6 5 6 3.61328125 4.6875 C2.40885417 3.125 1.20442708 1.5625 0 0 Z " fill="#3C4971" transform="translate(650,364)"/>
<path d="M0 0 C0 0.66 0 1.32 0 2 C-2.31 3.32 -4.62 4.64 -7 6 C-7.99 5.34 -8.98 4.68 -10 4 C-8.71086513 3.32845067 -7.41859796 2.66291141 -6.125 2 C-5.40570313 1.62875 -4.68640625 1.2575 -3.9453125 0.875 C-2 0 -2 0 0 0 Z " fill="#38446E" transform="translate(419,310)"/>
<path d="M0 0 C1.98 0.99 1.98 0.99 4 2 C4 2.66 4 3.32 4 4 C5.32 4.33 6.64 4.66 8 5 C7.67 5.99 7.34 6.98 7 8 C3.75700849 5.61042731 1.49097658 3.7952131 0 0 Z " fill="#353E6A" transform="translate(349,644)"/>
<path d="M0 0 C0.33 0 0.66 0 1 0 C0.93993922 1.45947705 0.8511311 2.91779272 0.75 4.375 C0.70359375 5.18710937 0.6571875 5.99921875 0.609375 6.8359375 C0.30773437 7.90714844 0.30773437 7.90714844 0 9 C-1.98 9.99 -1.98 9.99 -4 11 C-2.68 7.37 -1.36 3.74 0 0 Z " fill="#0D7EB9" transform="translate(628,554)"/>
<path d="M0 0 C2.62901288 1.52206009 4.84365964 2.84365964 7 5 C6.625 7.125 6.625 7.125 6 9 C5.87625 8.071875 5.87625 8.071875 5.75 7.125 C5.20605562 4.82027141 5.20605562 4.82027141 3 3.9375 C2.34 3.628125 1.68 3.31875 1 3 C0.67 2.01 0.34 1.02 0 0 Z " fill="#2F6EA2" transform="translate(662,412)"/>
<path d="M0 0 C-0.33 0.99 -0.66 1.98 -1 3 C-3.64 3 -6.28 3 -9 3 C-6.01800145 0.01800145 -4.21244839 0 0 0 Z " fill="#206EA6" transform="translate(447,408)"/>
<path d="M0 0 C0.99 0.66 1.98 1.32 3 2 C-0.465 4.97 -0.465 4.97 -4 8 C-3.07377893 4.29511572 -2.32789515 2.83395931 0 0 Z " fill="#1F2C5D" transform="translate(369,364)"/>
<path d="M0 0 C3.465 1.485 3.465 1.485 7 3 C5.68 4.32 4.36 5.64 3 7 C3 6.01 3 5.02 3 4 C2.01 3.34 1.02 2.68 0 2 C0 1.34 0 0.68 0 0 Z " fill="#33417B" transform="translate(362,712)"/>
<path d="M0 0 C2.625 0.375 2.625 0.375 5 1 C4.67 1.99 4.34 2.98 4 4 C2.02 3.34 0.04 2.68 -2 2 C-1.34 1.34 -0.68 0.68 0 0 Z " fill="#2E3C68" transform="translate(431,699)"/>
<path d="M0 0 C-0.25 1.875 -0.25 1.875 -1 4 C-3.0625 5.25 -3.0625 5.25 -5 6 C-5 5.34 -5 4.68 -5 4 C-5.66 3.67 -6.32 3.34 -7 3 C-2.25 0 -2.25 0 0 0 Z " fill="#29396C" transform="translate(615,670)"/>
<path d="M0 0 C1.32 0.33 2.64 0.66 4 1 C4.33 3.31 4.66 5.62 5 8 C2.74754119 5.31158141 1.11786042 3.35358125 0 0 Z " fill="#2A3465" transform="translate(331,620)"/>
<path d="M0 0 C0.99 0.66 1.98 1.32 3 2 C2.25 4.4375 2.25 4.4375 1 7 C-0.32 7.33 -1.64 7.66 -3 8 C-2.01 5.36 -1.02 2.72 0 0 Z " fill="#E8EEF4" transform="translate(709,591)"/>
<path d="M0 0 C0.66 0 1.32 0 2 0 C1.41196203 3.02419525 0.77321882 6.01758453 0 9 C-0.66 9 -1.32 9 -2 9 C-1.34 6.03 -0.68 3.06 0 0 Z " fill="#263562" transform="translate(705,545)"/>
<path d="M0 0 C4.43090471 1.20842856 6.98112756 2.51668565 10 6 C6.05879291 5.43697042 3.2491277 4.3208055 0 2 C0 1.34 0 0.68 0 0 Z " fill="#0E4278" transform="translate(454,497)"/>
<path d="M0 0 C0.99 0 1.98 0 3 0 C3.33 0.99 3.66 1.98 4 3 C2.68 3.99 1.36 4.98 0 6 C-1.125 2.25 -1.125 2.25 0 0 Z " fill="#2E3D6C" transform="translate(362,370)"/>
<path d="M0 0 C1.32 0 2.64 0 4 0 C4 0.66 4 1.32 4 2 C5.65 2 7.3 2 9 2 C9 2.33 9 2.66 9 3 C2.9453125 3.1953125 2.9453125 3.1953125 1 3 C0.34 2.34 -0.32 1.68 -1 1 C-0.67 0.67 -0.34 0.34 0 0 Z " fill="#485883" transform="translate(341,733)"/>
<path d="M0 0 C-1.45255699 3.82946843 -3.42895561 5.12050295 -7 7 C-7 6.01 -7 5.02 -7 4 C-2.65714286 0 -2.65714286 0 0 0 Z " fill="#2C396B" transform="translate(657,661)"/>
<path d="M0 0 C0.66 0 1.32 0 2 0 C1.67 2.31 1.34 4.62 1 7 C-0.65 5.35 -2.3 3.7 -4 2 C-3.01 2 -2.02 2 -1 2 C-0.67 1.34 -0.34 0.68 0 0 Z " fill="#1B6DA8" transform="translate(392,578)"/>
<path d="M0 0 C-2.5654594 2.5654594 -4.47686668 2.54046087 -8 3 C-8.33 2.34 -8.66 1.68 -9 1 C-6.04335481 -0.4783226 -3.25770263 -0.06032783 0 0 Z " fill="#16427A" transform="translate(525,573)"/>
<path d="M0 0 C0.33 0 0.66 0 1 0 C1.33 3.3 1.66 6.6 2 10 C1.01 9.01 0.02 8.02 -1 7 C-0.6875 3.3125 -0.6875 3.3125 0 0 Z " fill="#475176" transform="translate(316,530)"/>
<path d="M0 0 C1.32 0.33 2.64 0.66 4 1 C3.34 1.66 2.68 2.32 2 3 C1.54188325 4.97235333 1.54188325 4.97235333 1.375 7.125 C1.25125 8.40375 1.1275 9.6825 1 11 C0.67 11 0.34 11 0 11 C0 7.37 0 3.74 0 0 Z " fill="#3CC5F0" transform="translate(505,414)"/>
<path d="M0 0 C4.24822374 0.47202486 6.19989709 2.96655518 9 6 C4.75177626 5.52797514 2.80010291 3.03344482 0 0 Z " fill="#2C3665" transform="translate(645,336)"/>
</svg>
